<?xml version="1.0" standalone="no"?>
<!DOCTYPE svg PUBLIC "-//W3C//DTD SVG 20010904//EN"
 "http://www.w3.org/TR/2001/REC-SVG-20010904/DTD/svg10.dtd">
<svg version="1.0" xmlns="http://www.w3.org/2000/svg"
 width="298.000000pt" height="71.000000pt" viewBox="0 0 298.000000 71.000000"
 preserveAspectRatio="xMidYMid meet">
<metadata>
Created by potrace 1.10, written by Peter Selinger 2001-2011
</metadata>
<g transform="translate(0.000000,71.000000) scale(0.050000,-0.050000)"
fill="#006eff" stroke="none">
<path d="M453 1407 c-7 -8 -13 -79 -13 -160 0 -114 -6 -143 -27 -135 -36 13
-168 -136 -217 -246 -255 -577 444 -1105 958 -724 249 186 306 555 123 807
-54 74 -57 91 -57 275 l0 196 -377 0 c-207 0 -382 -6 -390 -13z m707 -257 c0
-115 -7 -210 -15 -211 -8 0 -153 -2 -322 -5 l-307 -4 -10 215 -10 215 332 0
332 0 0 -210z m-766 -288 c-110 -117 -163 -330 -117 -463 31 -88 14 -98 -28
-17 -92 178 -50 443 97 610 l84 96 6 -87 c5 -69 -3 -96 -42 -139z m927 -127
c27 -113 12 -248 -43 -373 -44 -101 -67 -102 -38 -1 62 215 -92 601 -182 456
-13 -21 -21 -22 -41 -2 -29 29 -265 35 -248 6 6 -10 1 -25 -11 -32 -13 -8 -31
-1 -40 15 -11 19 -37 26 -78 20 -49 -7 -57 -14 -38 -37 18 -21 30 -22 51 -4
22 18 34 15 56 -15 24 -33 24 -40 -6 -51 -18 -7 -65 -41 -103 -77 -38 -35 -72
-54 -76 -42 -12 35 -61 26 -83 -15 -23 -45 -9 -65 34 -48 17 6 26 3 20 -7 -16
-26 38 -95 63 -79 26 16 202 -63 202 -89 0 -11 17 -20 39 -20 87 0 67 -75 -51
-193 -95 -95 -148 -83 -148 35 0 21 -19 57 -42 80 -30 30 -39 58 -31 97 9 47
-1 62 -76 109 -128 81 -134 249 -13 370 39 39 64 42 390 42 288 0 351 5 373
31 33 41 87 -37 120 -176z m-181 -10 c66 -56 4 -87 -76 -37 -14 8 -29 2 -36
-17 -16 -40 -68 -41 -68 -1 0 17 10 30 21 30 12 0 16 9 9 20 -41 67 74 71 150
5z m60 -120 c28 -24 2 -242 -37 -319 -49 -96 -97 -139 -71 -64 39 114 23 168
-49 170 -117 4 -141 163 -35 232 21 14 172 -1 192 -19z"/>
<path d="M579 1293 c-1 -2 -3 -43 -5 -93 l-4 -90 126 -6 126 -6 -6 96 -6 96
-115 3 c-63 2 -116 2 -116 0z"/>
<path d="M870 1280 c-8 -13 37 -20 120 -20 83 0 128 7 120 20 -7 11 -61 20
-120 20 -59 0 -113 -9 -120 -20z"/>
<path d="M870 1180 c-8 -13 37 -20 120 -20 83 0 128 7 120 20 -7 11 -61 20
-120 20 -59 0 -113 -9 -120 -20z"/>
<path d="M860 1080 c0 -11 53 -20 120 -20 67 0 120 9 120 20 0 11 -53 20 -120
20 -67 0 -120 -9 -120 -20z"/>
<path d="M570 1020 c7 -11 66 -20 131 -20 66 0 119 9 119 20 0 11 -57 20 -131
20 -83 0 -127 -7 -119 -20z"/>
<path d="M870 980 c7 -11 61 -20 121 -20 60 0 109 9 109 20 0 11 -54 20 -121
20 -76 0 -117 -8 -109 -20z"/>
<path d="M2343 934 c-23 -26 -43 -66 -43 -90 0 -26 -12 -44 -30 -44 -19 0 -30
-19 -30 -50 0 -32 11 -50 31 -50 26 0 31 -26 27 -155 l-4 -155 58 0 58 0 -7
153 -7 154 57 6 c81 10 83 89 2 83 -32 -2 -55 7 -55 21 0 36 42 73 84 73 25 0
36 15 36 50 0 69 -113 71 -177 4z"/>
<path d="M1600 660 l0 -283 61 7 62 6 0 270 0 270 -62 6 -61 7 0 -283z"/>
<path d="M3060 660 l0 -280 190 0 190 0 0 61 0 62 -125 -5 -125 -6 -6 64 -7
64 123 0 c116 0 122 3 116 45 -6 42 -15 44 -121 38 l-115 -7 0 74 0 73 125 -6
c123 -7 125 -6 131 48 l7 55 -192 0 -191 0 0 -280z"/>
<path d="M4593 779 c-44 -35 -53 -37 -53 -10 0 21 -18 31 -55 31 l-55 0 1
-205 2 -205 58 0 59 0 -7 116 c-7 126 28 194 100 194 28 0 37 15 37 60 0 71
-16 74 -87 19z"/>
<path d="M4829 792 c-208 -90 -150 -412 73 -412 86 0 178 48 178 92 0 34 -60
36 -128 5 -41 -18 -60 -16 -101 11 -84 54 -60 72 98 72 169 0 175 4 144 98
-39 117 -161 178 -264 134z m132 -93 c72 -38 47 -79 -48 -79 -105 0 -124 15
-80 63 38 42 72 46 128 16z"/>
<path d="M5236 789 c-131 -71 -107 -183 48 -232 51 -16 86 -39 86 -57 0 -41
-78 -49 -109 -11 -33 39 -121 41 -121 2 0 -95 223 -148 300 -71 82 82 47 170
-82 208 -100 30 -134 92 -51 92 28 0 56 -9 63 -20 13 -21 110 -28 110 -9 0 92
-147 150 -244 98z"/>
<path d="M5620 785 c-134 -67 -108 -172 56 -227 53 -18 94 -44 94 -60 0 -39
-98 -47 -129 -9 -29 35 -92 41 -111 11 -25 -41 85 -120 166 -120 212 0 254
196 53 247 -53 14 -100 36 -104 49 -12 35 55 54 97 27 43 -26 138 -31 138 -6
0 80 -165 137 -260 88z"/>
<path d="M1813 787 c-7 -8 -13 -102 -13 -210 l0 -197 59 0 59 0 6 155 6 155
70 0 70 0 6 -155 6 -155 59 0 59 0 0 157 c0 197 -40 263 -157 263 -41 0 -85
-10 -97 -22 -15 -15 -25 -15 -35 0 -15 24 -77 30 -98 9z"/>
<path d="M2594 744 c-142 -148 -57 -365 144 -368 214 -3 302 253 135 389 -71
57 -214 47 -279 -21z m236 -156 c0 -105 -83 -159 -150 -98 -60 54 -49 170 20
204 75 37 130 -7 130 -106z"/>
<path d="M3480 787 c0 -7 31 -51 69 -97 l70 -85 -70 -97 c-84 -118 -85 -128
-12 -128 44 0 65 15 94 70 21 39 43 70 49 70 6 0 28 -32 49 -70 29 -55 50 -70
94 -70 72 0 72 26 -3 120 -74 93 -74 112 1 199 73 86 74 101 3 101 -43 0 -65
-16 -97 -72 l-41 -72 -45 72 c-40 65 -161 109 -161 59z"/>
<path d="M3940 510 l0 -290 60 0 c59 0 60 2 60 101 0 93 3 99 39 80 92 -50
202 -15 251 79 96 186 -76 393 -250 300 -25 -13 -42 -13 -50 0 -7 11 -34 20
-61 20 l-49 0 0 -290z m296 166 c70 -70 14 -196 -88 -196 -79 0 -122 80 -89
166 22 59 130 77 177 30z"/>
</g>
</svg>
