<?xml version="1.0" standalone="no"?>
<!DOCTYPE svg PUBLIC "-//W3C//DTD SVG 20010904//EN"
 "http://www.w3.org/TR/2001/REC-SVG-20010904/DTD/svg10.dtd">
<svg version="1.0" xmlns="http://www.w3.org/2000/svg"
 width="298.000000pt" height="71.000000pt" viewBox="0 0 298.000000 71.000000"
 preserveAspectRatio="xMidYMid meet">

<g transform="translate(0.000000,71.000000) scale(0.100000,-0.100000)"
fill="#000000" stroke="none">
<path d="M230 700 c0 -5 -2 -62 -5 -125 -4 -102 -7 -119 -29 -148 -56 -75 -75
-165 -52 -239 14 -45 -10 -33 -29 14 -40 100 -15 224 61 305 38 40 44 59 14
43 -26 -14 -77 -90 -96 -142 -9 -24 -16 -71 -16 -105 1 -210 233 -358 428
-273 170 74 237 296 133 440 -27 38 -29 46 -29 140 l0 100 -190 0 c-117 0
-190 -4 -190 -10z m353 -124 c-2 -70 -6 -102 -15 -106 -7 -4 -80 -6 -162 -6
l-150 1 -4 108 -4 107 168 -2 169 -3 -2 -99z m61 -152 c31 -59 34 -157 6 -222
-22 -50 -64 -103 -46 -57 34 85 30 163 -10 233 -25 41 -57 56 -67 30 -4 -10
-7 -10 -18 0 -7 7 -38 12 -71 12 -47 0 -56 -3 -52 -15 4 -10 0 -15 -10 -15 -9
0 -19 6 -22 13 -3 9 -16 12 -35 9 -24 -4 -27 -7 -18 -18 9 -11 15 -12 26 -2
12 10 18 9 29 -7 12 -17 10 -21 -24 -43 -20 -14 -41 -31 -45 -38 -5 -9 -18
-11 -37 -7 -26 5 -30 2 -30 -15 0 -16 4 -20 17 -15 9 4 14 2 11 -3 -11 -17 16
-39 51 -41 18 -1 47 -13 65 -26 17 -13 39 -26 49 -30 28 -10 13 -45 -40 -95
-49 -46 -73 -44 -73 5 0 14 -9 36 -20 50 -11 14 -20 37 -20 50 0 26 -10 40
-52 67 -20 13 -29 29 -33 61 -7 45 2 73 38 113 20 21 27 22 193 22 139 0 176
3 186 15 18 20 29 14 52 -31z m-164 -30 c0 -17 -22 -14 -28 4 -2 7 3 12 12 12
9 0 16 -7 16 -16z m84 -25 c36 -28 33 -41 -8 -35 -19 3 -38 1 -41 -4 -10 -15
-35 -12 -35 5 0 8 4 15 9 15 5 0 7 9 4 20 -4 16 0 20 19 20 14 0 37 -9 52 -21z
m34 -62 c30 -19 2 -166 -39 -203 -22 -20 -23 -16 -8 22 15 41 4 78 -23 71 -34
-9 -58 10 -58 46 0 48 31 77 78 74 20 -1 43 -6 50 -10z"/>
<path d="M285 610 c-4 -24 -3 -46 3 -52 5 -5 33 -8 63 -6 l54 3 0 45 0 45 -57
3 -56 3 -7 -41z"/>
<path d="M468 633 c18 -2 45 -2 60 0 15 2 0 4 -33 4 -33 0 -45 -2 -27 -4z"/>
<path d="M435 590 c-4 -6 17 -10 54 -10 34 0 61 4 61 10 0 6 -24 10 -54 10
-30 0 -58 -4 -61 -10z"/>
<path d="M440 540 c0 -5 25 -10 55 -10 30 0 55 5 55 10 0 6 -25 10 -55 10 -30
0 -55 -4 -55 -10z"/>
<path d="M290 510 c0 -6 27 -10 60 -10 33 0 60 4 60 10 0 6 -27 10 -60 10 -33
0 -60 -4 -60 -10z"/>
<path d="M440 490 c0 -5 25 -10 55 -10 30 0 55 5 55 10 0 6 -25 10 -55 10 -30
0 -55 -4 -55 -10z"/>
<path d="M1195 481 c-28 -12 -42 -31 -47 -61 -2 -14 -9 -24 -16 -22 -7 1 -12
-9 -12 -23 0 -16 6 -25 15 -25 12 0 15 -15 15 -75 0 -73 1 -75 25 -75 24 0 25
2 25 75 0 73 1 75 25 75 20 0 25 5 25 26 0 21 -4 25 -20 21 -11 -3 -23 -1 -26
4 -9 14 16 39 38 39 14 0 19 6 16 23 -3 24 -30 32 -63 18z"/>
<path d="M807 463 c-4 -3 -7 -64 -7 -135 l0 -128 30 0 30 0 0 135 c0 135 0
135 -23 135 -13 0 -27 -3 -30 -7z"/>
<path d="M1534 457 c-2 -7 -3 -68 -2 -136 l3 -123 90 0 c88 0 90 1 90 24 0 21
-4 23 -62 26 -62 3 -63 3 -63 32 0 28 1 29 58 32 43 2 57 7 57 18 0 11 -14 16
-58 18 l-58 3 3 32 c3 31 4 32 63 37 40 3 60 9 59 18 -1 6 -2 17 -3 22 -2 16
-171 13 -177 -3z"/>
<path d="M905 392 c-3 -3 -5 -47 -5 -99 l0 -93 30 0 29 0 3 73 3 72 35 0 35 0
3 -72 3 -73 29 0 30 0 0 75 c0 67 -3 79 -25 100 -25 26 -68 32 -95 15 -8 -5
-19 -5 -25 -1 -11 9 -42 11 -50 3z"/>
<path d="M1298 371 c-28 -25 -33 -36 -33 -76 0 -40 5 -51 33 -76 45 -40 99
-40 144 0 28 25 33 36 33 76 0 40 -5 51 -33 76 -24 22 -42 29 -72 29 -30 0
-48 -7 -72 -29z m104 -28 c35 -31 13 -113 -30 -113 -45 0 -69 75 -35 112 20
22 41 23 65 1z"/>
<path d="M1740 394 c0 -3 14 -23 30 -44 17 -21 30 -44 30 -52 0 -8 -13 -32
-30 -54 -16 -21 -30 -42 -30 -45 0 -3 14 -3 31 -1 21 3 37 14 48 33 9 16 18
29 21 29 3 0 12 -13 21 -29 11 -19 27 -30 48 -33 17 -2 31 -2 31 2 0 4 -13 24
-30 46 -16 21 -30 45 -30 53 0 7 14 30 30 51 36 46 37 50 6 50 -16 0 -34 -12
-50 -32 l-25 -32 -20 25 c-11 13 -20 27 -21 32 0 8 -60 10 -60 1z"/>
<path d="M2051 391 c-8 -5 -29 -7 -48 -4 l-33 6 0 -137 0 -136 30 0 c29 0 30
2 30 45 0 42 2 45 19 35 37 -19 72 -11 107 24 39 39 45 80 17 126 -25 43 -86
64 -122 41z m67 -53 c7 -7 12 -26 12 -43 0 -39 -16 -55 -56 -55 -40 0 -61 40
-45 83 9 22 17 27 44 27 18 0 38 -5 45 -12z"/>
<path d="M2219 396 c-2 -2 -3 -49 -1 -103 3 -95 4 -99 25 -98 20 1 22 8 25 61
3 62 21 94 54 94 13 0 18 7 18 25 0 28 -16 32 -47 10 -19 -13 -22 -13 -27 0
-5 14 -37 21 -47 11z"/>
<path d="M2397 389 c-23 -13 -47 -62 -47 -94 0 -88 107 -137 172 -78 37 33 13
41 -59 18 -15 -5 -28 0 -45 17 l-23 23 78 3 77 3 0 30 c0 46 -48 89 -97 89
-21 0 -46 -5 -56 -11z m88 -42 c26 -20 10 -37 -36 -37 -40 0 -51 14 -27 38 16
16 40 15 63 -1z"/>
<path d="M2596 377 c-14 -14 -26 -30 -26 -35 0 -21 37 -52 75 -64 23 -8 40
-19 40 -28 0 -20 -39 -25 -53 -7 -12 15 -62 12 -62 -3 0 -17 54 -50 81 -50 41
0 79 20 85 46 11 42 -4 63 -54 77 -53 16 -72 47 -28 47 14 0 28 -4 31 -10 7
-12 55 -14 55 -2 0 24 -30 44 -72 49 -40 5 -50 2 -72 -20z"/>
<path d="M2803 390 c-46 -19 -38 -92 11 -104 56 -14 76 -25 70 -41 -7 -18 -45
-20 -62 -3 -6 6 -21 12 -32 13 -16 1 -20 -3 -18 -19 4 -28 46 -48 91 -42 97
11 104 103 9 122 -41 8 -61 31 -37 40 10 4 26 2 36 -4 26 -17 59 -15 59 2 0
36 -74 57 -127 36z"/>
</g>
</svg>
